<svg xmlns="http://www.w3.org/2000/svg" viewBox="0 0 114 30">
    <path fill="#00B0B9"
          d="M16.4 2.2c0 1.2-1 2.2-2.2 2.2s-2.2-1-2.2-2.2 1-2.2 2.2-2.2 2.2 1 2.2 2.2zm-2.2 4c-1.3 0-2.3 1-2.3 2.3s1 2.3 2.3 2.3 2.3-1 2.3-2.3-1-2.3-2.3-2.3zm0 6.2c-1.3 0-2.4 1.1-2.4 2.4s1.1 2.4 2.4 2.4 2.4-1.1 2.4-2.4-1.1-2.4-2.4-2.4zm0 6.3c-1.3 0-2.3 1-2.3 2.3 0 1.3 1 2.3 2.3 2.3s2.3-1 2.3-2.3c0-1.2-1-2.3-2.3-2.3zm0 6.4c-1.2 0-2.2 1-2.2 2.2 0 1.2 1 2.2 2.2 2.2s2.2-1 2.2-2.2c0-1.2-1-2.2-2.2-2.2zm6.1-19.2c-1.4 0-2.6 1.2-2.6 2.6s1.2 2.6 2.6 2.6 2.6-1.2 2.6-2.6-1.2-2.6-2.6-2.6zm0 6.2c-1.5 0-2.7 1.2-2.7 2.7 0 1.5 1.2 2.7 2.7 2.7s2.7-1.2 2.7-2.7c0-1.5-1.2-2.7-2.7-2.7zm0 6.3c-1.4 0-2.6 1.2-2.6 2.6 0 1.4 1.2 2.6 2.6 2.6s2.6-1.2 2.6-2.6c0-1.4-1.2-2.6-2.6-2.6zm6.3-6.6c-1.6 0-3 1.3-3 3 0 1.6 1.3 3 3 3s3-1.3 3-3c-.1-1.7-1.4-3-3-3zm-18.6-5.3c-1.1 0-2 .9-2 2s.9 2 2 2 2-.9 2-2-.9-2-2-2zm0 6.2c-1.2 0-2.1.9-2.1 2.1 0 1.2.9 2.1 2.1 2.1s2.1-.9 2.1-2.1c0-1.2-.9-2.1-2.1-2.1zm0 6.3c-1.1 0-2 .9-2 2s.9 2 2 2 2-.9 2-2-.9-2-2-2zm-6.2-6c-1 0-1.8.8-1.8 1.8s.8 1.8 1.8 1.8 1.8-.8 1.8-1.8-.8-1.8-1.8-1.8z"/>
    <path fill="#002A3A"
          d="M52.2 10.9c-.2 0-.4.2-.4.4v15.7c0 .2.2.4.4.4h1.9c.2 0 .4-.2.4-.4v-15.7c0-.2-.2-.4-.4-.4h-1.9zM53.2 4.3c-1 0-1.8.8-1.8 1.8s.8 1.8 1.8 1.8 1.8-.8 1.8-1.8-.8-1.8-1.8-1.8zM92.5 10.9c-.2 0-.4.2-.4.4v15.7c0 .2.2.4.4.4h1.9c.2 0 .4-.2.4-.4v-15.7c0-.2-.2-.4-.4-.4h-1.9zM93.4 4.3c-1 0-1.8.8-1.8 1.8s.8 1.8 1.8 1.8 1.8-.8 1.8-1.8-.8-1.8-1.8-1.8zM112.4 25.9c.1-.1.1-.2.1-.3v-.1s0-.1-.1-.1c0 0-.1-.1-.2-.1h-.7v1.4h.2v-.5h.3l.4.5h.2l-.5-.6c.2 0 .3-.1.3-.2zm-.7.1v-.5h.4c.1 0 .2 0 .3.1.1 0 .1.1.1.2s0 .2-.1.2l-.3.1h-.4zM112 24.7c-.7 0-1.3.6-1.3 1.3 0 .7.6 1.3 1.3 1.3s1.3-.6 1.3-1.3c0-.7-.6-1.3-1.3-1.3zm0 2.5c-.7 0-1.2-.5-1.2-1.2s.5-1.2 1.2-1.2 1.2.5 1.2 1.2-.6 1.2-1.2 1.2zM67.8 13.5c.2 0 .4-.2.4-.4v-1.9c0-.2-.2-.4-.4-.4h-4v-6c0-.2-.2-.4-.4-.4h-1.9c-.2 0-.4.2-.4.4v6h-2c-.2 0-.4.2-.4.4v1.9c0 .2.2.4.4.4h2v9.1c0 2.8 1.9 4.6 4.6 4.6h2c.2 0 .4-.2.4-.4v-1.9c0-.2-.2-.4-.4-.4h-1.7c-1.3 0-2.2-.9-2.2-2.3v-8.8h4zM107.6 13.5c.2 0 .4-.2.4-.4v-1.9c0-.2-.2-.4-.4-.4h-4v-6c0-.2-.2-.4-.4-.4h-1.9c-.2 0-.4.2-.4.4v6h-2c-.2 0-.4.2-.4.4v1.9c0 .2.2.4.4.4h2v9.1c0 2.8 1.9 4.6 4.6 4.6h2c.2 0 .4-.2.4-.4v-1.9c0-.2-.2-.4-.4-.4h-1.8c-1.3 0-2.2-.9-2.2-2.3v-8.8h4.1zM40.3 13.5v13.4c0 .2.2.4.4.4h1.9c.2 0 .4-.2.4-.4v-13.4h4.4c.2 0 .4-.2.4-.4v-1.9c0-.2-.2-.4-.4-.4h-4.4v-3.5c0-1.4 1-2.4 2.2-2.4h2.2c.2 0 .4-.2.4-.4v-1.9c0-.2-.2-.4-.4-.4h-2.1c-2.8 0-5 2.3-5 5v3.6h-2c-.2 0-.4.2-.4.4v1.9c0 .2.2.4.4.4h2zM86.1 12.8c-1.5-1.6-3.6-2.5-5.8-2.5-2.1 0-4.2.9-5.5 2.2v-10c0-.2-.2-.4-.4-.4h-1.9c-.2 0-.4.2-.4.4v16.5c0 6.1 4.1 8.8 8.1 8.8s8.1-2.7 8.1-8.8c.1-2.4-.7-4.6-2.2-6.2zm-5.8 12.5c-4 0-5.5-3.2-5.5-6.2 0-3.7 2.2-6.1 5.5-6.1s5.5 2.5 5.5 6.1c-.1 3-1.5 6.2-5.5 6.2z"/>
</svg>