<?xml version="1.0" encoding="utf-8"?>
<!-- Generator: Adobe Illustrator 15.1.0, SVG Export Plug-In . SVG Version: 6.00 Build 0)  -->
<!DOCTYPE svg PUBLIC "-//W3C//DTD SVG 1.1//EN" "http://www.w3.org/Graphics/SVG/1.1/DTD/svg11.dtd">
<svg version="1.1" id="Layer_1" xmlns="http://www.w3.org/2000/svg" xmlns:xlink="http://www.w3.org/1999/xlink" x="0px" y="0px"
	 width="841.889px" height="595.281px" viewBox="0 0 841.889 595.281" enable-background="new 0 0 841.889 595.281"
	 xml:space="preserve">
<path fill="#00B0B9" d="M121.114,203.112c0,8.862-7.385,16.247-16.246,16.247c-8.862,0-16.247-7.385-16.247-16.247
	s7.385-16.247,16.247-16.247C113.729,186.865,121.114,194.25,121.114,203.112z M104.867,232.652
	c-9.601,0-16.986,7.385-16.986,16.985s7.386,16.985,16.986,16.985c9.6,0,16.985-7.385,16.985-16.985
	S114.467,232.652,104.867,232.652z M104.867,278.439c-9.601,0-17.725,8.123-17.725,17.724s8.124,17.725,17.725,17.725
	c9.6,0,17.724-8.124,17.724-17.725S114.467,278.439,104.867,278.439z M104.867,324.965c-9.601,0-16.986,7.385-16.986,16.985
	s7.386,16.986,16.986,16.986c9.6,0,16.985-7.386,16.985-16.986C121.853,333.089,114.467,324.965,104.867,324.965z M104.867,372.229
	c-8.862,0-16.247,7.385-16.247,16.247c0,8.861,7.385,16.246,16.247,16.246c8.861,0,16.246-7.385,16.246-16.246
	C121.114,379.614,113.729,372.229,104.867,372.229z M149.915,230.436c-10.339,0-19.201,8.862-19.201,19.201
	s8.862,19.201,19.201,19.201s19.201-8.862,19.201-19.201S160.254,230.436,149.915,230.436z M149.915,276.223
	c-11.077,0-19.939,8.862-19.939,19.939c0,11.078,8.862,19.94,19.939,19.94s19.939-8.862,19.939-19.94
	C169.855,285.086,160.992,276.223,149.915,276.223z M149.915,322.75c-10.339,0-19.201,8.861-19.201,19.2
	c0,10.34,8.862,19.201,19.201,19.201s19.201-8.861,19.201-19.201C169.116,331.611,160.254,322.75,149.915,322.75z M196.441,274.009
	c-11.815,0-22.154,9.601-22.154,22.154c0,11.816,9.6,22.155,22.154,22.155s22.155-9.601,22.155-22.155
	C217.858,283.609,208.257,274.009,196.441,274.009z M59.08,234.868c-8.124,0-14.771,6.646-14.771,14.77
	c0,8.124,6.646,14.771,14.771,14.771c8.123,0,14.77-6.646,14.77-14.771C73.85,241.514,67.203,234.868,59.08,234.868z M59.08,280.655
	c-8.862,0-15.509,6.646-15.509,15.508c0,8.862,6.646,15.509,15.509,15.509c8.861,0,15.508-6.646,15.508-15.509
	C74.588,287.302,67.942,280.655,59.08,280.655z M59.08,327.18c-8.124,0-14.771,6.646-14.771,14.77
	c0,8.124,6.646,14.771,14.771,14.771c8.123,0,14.77-6.646,14.77-14.771C73.85,333.827,67.203,327.18,59.08,327.18z M13.293,282.87
	C5.908,282.87,0,288.778,0,296.163c0,7.386,5.908,13.294,13.293,13.294s13.293-5.908,13.293-13.294
	C26.586,288.778,20.678,282.87,13.293,282.87z"/>
<path fill="#002A3A" d="M385.497,267.362c-1.478,0-2.954,1.477-2.954,2.953V386.26c0,1.477,1.477,2.954,2.954,2.954h14.031
	c1.477,0,2.954-1.478,2.954-2.954V270.315c0-1.477-1.478-2.953-2.954-2.953H385.497z M392.882,218.621
	c-7.385,0-13.293,5.908-13.293,13.293s5.908,13.293,13.293,13.293s13.293-5.908,13.293-13.293S400.267,218.621,392.882,218.621z
	 M683.112,267.362c-1.477,0-2.953,1.477-2.953,2.953V386.26c0,1.477,1.477,2.954,2.953,2.954h14.032
	c1.477,0,2.954-1.478,2.954-2.954V270.315c0-1.477-1.478-2.953-2.954-2.953H683.112z M689.758,218.621
	c-7.385,0-13.293,5.908-13.293,13.293s5.908,13.293,13.293,13.293c7.386,0,13.293-5.908,13.293-13.293
	S697.144,218.621,689.758,218.621z M500.702,286.562c1.478,0,2.954-1.477,2.954-2.953v-14.032c0-1.477-1.477-2.954-2.954-2.954
	h-29.54v-44.31c0-1.477-1.477-2.954-2.954-2.954h-14.031c-1.477,0-2.954,1.478-2.954,2.954v44.31h-14.77
	c-1.478,0-2.954,1.478-2.954,2.954v14.032c0,1.477,1.477,2.953,2.954,2.953h14.77v67.204c0,20.678,14.031,33.971,33.971,33.971
	h14.771c1.477,0,2.954-1.477,2.954-2.954v-14.031c0-1.477-1.478-2.954-2.954-2.954h-12.555c-9.601,0-16.247-6.646-16.247-16.985
	v-64.988h29.54V286.562z M794.625,286.562c1.478,0,2.954-1.477,2.954-2.953v-14.032c0-1.477-1.477-2.954-2.954-2.954h-29.54v-44.31
	c0-1.477-1.477-2.954-2.954-2.954H748.1c-1.477,0-2.954,1.478-2.954,2.954v44.31h-14.77c-1.478,0-2.954,1.478-2.954,2.954v14.032
	c0,1.477,1.477,2.953,2.954,2.953h14.77v67.204c0,20.678,14.031,33.971,33.971,33.971h14.771c1.477,0,2.954-1.477,2.954-2.954
	v-14.031c0-1.477-1.478-2.954-2.954-2.954h-13.293c-9.601,0-16.247-6.646-16.247-16.985v-64.988h30.278V286.562z M297.615,286.562
	v98.96c0,1.477,1.477,2.954,2.954,2.954h14.031c1.477,0,2.954-1.478,2.954-2.954v-98.96h32.494c1.477,0,2.954-1.477,2.954-2.953
	v-14.032c0-1.477-1.478-2.954-2.954-2.954h-32.494v-25.847c0-10.34,7.385-17.725,16.247-17.725h16.247
	c1.477,0,2.954-1.477,2.954-2.954v-14.031c0-1.477-1.478-2.954-2.954-2.954H334.54c-20.678,0-36.925,16.985-36.925,36.925v26.586
	h-14.771c-1.477,0-2.953,1.478-2.953,2.954v14.032c0,1.477,1.477,2.953,2.953,2.953H297.615L297.615,286.562z M635.848,281.393
	c-11.077-11.816-26.586-18.463-42.833-18.463c-15.509,0-31.017,6.646-40.617,16.247v-73.85c0-1.478-1.478-2.954-2.954-2.954h-14.031
	c-1.478,0-2.954,1.477-2.954,2.954V327.18c0,45.049,30.278,64.988,59.818,64.988s59.818-19.939,59.818-64.988
	C652.833,309.457,646.925,293.209,635.848,281.393L635.848,281.393z M593.015,373.706c-29.54,0-40.617-23.632-40.617-45.787
	c0-27.324,16.247-45.049,40.617-45.049s40.617,18.463,40.617,45.049C632.894,350.074,622.555,373.706,593.015,373.706z"/>
</svg>
