<?xml version="1.0" encoding="utf-8"?>
<!-- Generator: Adobe Illustrator 23.1.0, SVG Export Plug-In . SVG Version: 6.00 Build 0)  -->
<svg version="1.1" id="Layer_1" xmlns="http://www.w3.org/2000/svg" x="0px" y="0px"
	 viewBox="0 0 797.6 217.9" style="enable-background:new 0 0 797.6 217.9;" xml:space="preserve">
<style type="text/css">
	.st0{fill:#0099CC;}
	.st1{fill:#333333;}
</style>
<path class="st0" d="M121.1,16.2c0,8.9-7.4,16.2-16.2,16.2c-8.9,0-16.2-7.4-16.2-16.2S96,0,104.9,0C113.7,0,121.1,7.4,121.1,16.2z
	 M104.9,45.8c-9.6,0-17,7.4-17,17s7.4,17,17,17s17-7.4,17-17S114.5,45.8,104.9,45.8z M104.9,91.6c-9.6,0-17.7,8.1-17.7,17.7
	s8.1,17.7,17.7,17.7c9.6,0,17.7-8.1,17.7-17.7S114.5,91.6,104.9,91.6z M104.9,138.1c-9.6,0-17,7.4-17,17s7.4,17,17,17s17-7.4,17-17
	C121.9,146.2,114.5,138.1,104.9,138.1z M104.9,185.4c-8.9,0-16.2,7.4-16.2,16.2c0,8.9,7.4,16.2,16.2,16.2c8.9,0,16.2-7.4,16.2-16.2
	C121.1,192.7,113.7,185.4,104.9,185.4z M149.9,43.6c-10.3,0-19.2,8.9-19.2,19.2S139.6,82,149.9,82s19.2-8.9,19.2-19.2
	S160.3,43.6,149.9,43.6z M149.9,89.4c-11.1,0-19.9,8.9-19.9,19.9c0,11.1,8.9,19.9,19.9,19.9s19.9-8.9,19.9-19.9
	C169.9,98.2,161,89.4,149.9,89.4z M149.9,135.9c-10.3,0-19.2,8.9-19.2,19.2c0,10.3,8.9,19.2,19.2,19.2s19.2-8.9,19.2-19.2
	C169.1,144.7,160.3,135.9,149.9,135.9z M196.4,87.1c-11.8,0-22.2,9.6-22.2,22.2c0,11.8,9.6,22.2,22.2,22.2s22.2-9.6,22.2-22.2
	C217.9,96.7,208.3,87.1,196.4,87.1z M59.1,48c-8.1,0-14.8,6.6-14.8,14.8c0,8.1,6.6,14.8,14.8,14.8c8.1,0,14.8-6.6,14.8-14.8
	C73.8,54.6,67.2,48,59.1,48z M59.1,93.8c-8.9,0-15.5,6.6-15.5,15.5s6.6,15.5,15.5,15.5c8.9,0,15.5-6.6,15.5-15.5
	C74.6,100.4,67.9,93.8,59.1,93.8z M59.1,140.3c-8.1,0-14.8,6.6-14.8,14.8s6.6,14.8,14.8,14.8c8.1,0,14.8-6.6,14.8-14.8
	C73.8,147,67.2,140.3,59.1,140.3z M13.3,96C5.9,96,0,101.9,0,109.3c0,7.4,5.9,13.3,13.3,13.3s13.3-5.9,13.3-13.3
	C26.6,101.9,20.7,96,13.3,96z"/>
<path class="st1" d="M385.5,80.5c-1.5,0-3,1.5-3,3v115.9c0,1.5,1.5,3,3,3h14c1.5,0,3-1.5,3-3V83.4c0-1.5-1.5-3-3-3H385.5z
	 M392.9,31.8c-7.4,0-13.3,5.9-13.3,13.3s5.9,13.3,13.3,13.3s13.3-5.9,13.3-13.3S400.3,31.8,392.9,31.8z M683.1,80.5
	c-1.5,0-3,1.5-3,3v115.9c0,1.5,1.5,3,3,3h14c1.5,0,3-1.5,3-3V83.4c0-1.5-1.5-3-3-3H683.1z M689.8,31.8c-7.4,0-13.3,5.9-13.3,13.3
	s5.9,13.3,13.3,13.3c7.4,0,13.3-5.9,13.3-13.3S697.1,31.8,689.8,31.8z M500.7,99.7c1.5,0,3-1.5,3-3v-14c0-1.5-1.5-3-3-3h-29.5V35.4
	c0-1.5-1.5-3-3-3h-14c-1.5,0-3,1.5-3,3v44.3h-14.8c-1.5,0-3,1.5-3,3v14c0,1.5,1.5,3,3,3h14.8v67.2c0,20.7,14,34,34,34H500
	c1.5,0,3-1.5,3-3v-14c0-1.5-1.5-3-3-3h-12.6c-9.6,0-16.2-6.6-16.2-17V99h29.5L500.7,99.7L500.7,99.7z M794.6,99.7c1.5,0,3-1.5,3-3
	v-14c0-1.5-1.5-3-3-3h-29.5V35.4c0-1.5-1.5-3-3-3h-14c-1.5,0-3,1.5-3,3v44.3h-14.8c-1.5,0-3,1.5-3,3v14c0,1.5,1.5,3,3,3h14.8v67.2
	c0,20.7,14,34,34,34h14.8c1.5,0,3-1.5,3-3v-14c0-1.5-1.5-3-3-3h-13.3c-9.6,0-16.2-6.6-16.2-17V99h30.3L794.6,99.7L794.6,99.7z
	 M297.6,99.7v99c0,1.5,1.5,3,3,3h14c1.5,0,3-1.5,3-3v-99H350c1.5,0,3-1.5,3-3v-14c0-1.5-1.5-3-3-3h-32.5V53.9
	c0-10.3,7.4-17.7,16.2-17.7H350c1.5,0,3-1.5,3-3v-14c0-1.5-1.5-3-3-3h-15.5c-20.7,0-36.9,17-36.9,36.9v26.6h-14.8c-1.5,0-3,1.5-3,3
	v14c0,1.5,1.5,3,3,3H297.6L297.6,99.7z M635.8,94.5c-11.1-11.8-26.6-18.5-42.8-18.5c-15.5,0-31,6.6-40.6,16.2V18.5c0-1.5-1.5-3-3-3
	h-14c-1.5,0-3,1.5-3,3v121.9c0,45,30.3,65,59.8,65s59.8-19.9,59.8-65C652.8,122.6,646.9,106.3,635.8,94.5L635.8,94.5z M593,186.8
	c-29.5,0-40.6-23.6-40.6-45.8c0-27.3,16.2-45,40.6-45s40.6,18.5,40.6,45C632.9,163.2,622.6,186.8,593,186.8z"/>
</svg>
